<?xml version="1.0" encoding="UTF-8"?>
<svg width="24px" height="24px" viewBox="0 0 24 24" version="1.1" xmlns="http://www.w3.org/2000/svg">
    <g stroke="none" stroke-width="1" fill="none" fill-rule="evenodd">
        <path d="M16.48,2.52 C17.27,3.31 17.27,4.58 16.48,5.37 L13.37,8.48 C12.58,9.27 11.31,9.27 10.52,8.48 C9.73,7.69 9.73,6.42 10.52,5.63 L13.63,2.52 C14.42,1.73 15.69,1.73 16.48,2.52 Z" fill="#FFFFFF"/>
        <path d="M7.52,2.52 C8.31,1.73 9.58,1.73 10.37,2.52 L13.48,5.63 C14.27,6.42 14.27,7.69 13.48,8.48 C12.69,9.27 11.42,9.27 10.63,8.48 L7.52,5.37 C6.73,4.58 6.73,3.31 7.52,2.52 Z" fill="#FFFFFF"/>
        <path d="M2.52,7.52 C1.73,8.31 1.73,9.58 2.52,10.37 L5.63,13.48 C6.42,14.27 7.69,14.27 8.48,13.48 C9.27,12.69 9.27,11.42 8.48,10.63 L5.37,7.52 C4.58,6.73 3.31,6.73 2.52,7.52 Z" fill="#FFFFFF"/>
        <path d="M2.52,16.48 C1.73,17.27 1.73,18.54 2.52,19.33 L5.63,22.44 C6.42,23.23 7.69,23.23 8.48,22.44 C9.27,21.65 9.27,20.38 8.48,19.59 L5.37,16.48 C4.58,15.69 3.31,15.69 2.52,16.48 Z" fill="#FFFFFF"/>
        <path d="M16.48,19.33 C17.27,18.54 17.27,17.27 16.48,16.48 L13.37,13.37 C12.58,12.58 11.31,12.58 10.52,13.37 C9.73,14.16 9.73,15.43 10.52,16.22 L13.63,19.33 C14.42,20.12 15.69,20.12 16.48,19.33 Z" fill="#FFFFFF"/>
        <path d="M19.33,16.48 C20.12,15.69 20.12,14.42 19.33,13.63 L16.22,10.52 C15.43,9.73 14.16,9.73 13.37,10.52 C12.58,11.31 12.58,12.58 13.37,13.37 L16.48,16.48 C17.27,17.27 18.54,17.27 19.33,16.48 Z" fill="#FFFFFF"/>
        <path d="M19.33,7.52 C20.12,8.31 20.12,9.58 19.33,10.37 L16.22,13.48 C15.43,14.27 14.16,14.27 13.37,13.48 C12.58,12.69 12.58,11.42 13.37,10.63 L16.48,7.52 C17.27,6.73 18.54,6.73 19.33,7.52 Z" fill="#FFFFFF"/>
        <path d="M10.37,19.33 C9.58,20.12 8.31,20.12 7.52,19.33 L4.41,16.22 C3.62,15.43 3.62,14.16 4.41,13.37 C5.2,12.58 6.47,12.58 7.26,13.37 L10.37,16.48 C11.16,17.27 11.16,18.54 10.37,19.33 Z" fill="#FFFFFF"/>
    </g>
</svg> 